<mxfile host="app.diagrams.net" agent="Mozilla/5.0 (Windows NT 10.0; Win64; x64) AppleWebKit/537.36 (KHTML, like Gecko) Chrome/138.0.0.0 Safari/537.36 Edg/138.0.0.0" version="27.2.0">
  <diagram id="dMFPq8Ma2SvLUkesaSkS" name="Page-1">
    <mxGraphModel dx="591" dy="311" grid="1" gridSize="10" guides="1" tooltips="1" connect="1" arrows="1" fold="1" page="1" pageScale="1" pageWidth="1169" pageHeight="827" background="light-dark(#FFFFFF,#F7F7F7)" math="0" shadow="0">
      <root>
        <mxCell id="0" />
        <mxCell id="1" parent="0" />
        <mxCell id="d45avjFu-AIYiAAqqC4H-3" value="Isentropic Compression" style="rounded=1;whiteSpace=wrap;html=1;labelBackgroundColor=none;fillColor=light-dark(#A9C4EB,#A9C4EB);strokeColor=#788AA3;fontColor=light-dark(#46495D,#333333);" parent="1" vertex="1">
          <mxGeometry x="200" y="295" width="90" height="140" as="geometry" />
        </mxCell>
        <mxCell id="d45avjFu-AIYiAAqqC4H-4" value="" style="edgeStyle=elbowEdgeStyle;elbow=horizontal;endArrow=classic;html=1;curved=0;rounded=1;endSize=8;startSize=8;fontSize=12;entryX=0;entryY=0.5;entryDx=0;entryDy=0;labelBackgroundColor=none;strokeColor=#788AA3;fontColor=default;" parent="1" target="d45avjFu-AIYiAAqqC4H-3" edge="1">
          <mxGeometry width="50" height="50" relative="1" as="geometry">
            <mxPoint x="30" y="365" as="sourcePoint" />
            <mxPoint x="50" y="525" as="targetPoint" />
            <Array as="points">
              <mxPoint x="100" y="465" />
            </Array>
          </mxGeometry>
        </mxCell>
        <mxCell id="d45avjFu-AIYiAAqqC4H-5" value="pr_1" style="edgeLabel;html=1;align=center;verticalAlign=middle;resizable=0;points=[];fontSize=12;labelBackgroundColor=light-dark(#D9D9D9,#DBDBDB);fontColor=light-dark(#46495D,#46495D);rounded=1;" parent="d45avjFu-AIYiAAqqC4H-4" vertex="1" connectable="0">
          <mxGeometry x="0.6716" relative="1" as="geometry">
            <mxPoint x="-102" as="offset" />
          </mxGeometry>
        </mxCell>
        <mxCell id="d45avjFu-AIYiAAqqC4H-6" value="" style="edgeStyle=elbowEdgeStyle;elbow=horizontal;endArrow=classic;html=1;curved=0;rounded=1;endSize=8;startSize=8;fontSize=12;entryX=0;entryY=0.75;entryDx=0;entryDy=0;labelBackgroundColor=none;strokeColor=#788AA3;fontColor=default;" parent="1" target="d45avjFu-AIYiAAqqC4H-3" edge="1">
          <mxGeometry width="50" height="50" relative="1" as="geometry">
            <mxPoint x="30" y="465" as="sourcePoint" />
            <mxPoint x="160" y="395" as="targetPoint" />
            <Array as="points">
              <mxPoint x="170" y="430" />
            </Array>
          </mxGeometry>
        </mxCell>
        <mxCell id="d45avjFu-AIYiAAqqC4H-7" value="h_1" style="edgeLabel;html=1;align=center;verticalAlign=middle;resizable=0;points=[];fontSize=12;labelBackgroundColor=light-dark(#D9D9D9,#DBDBDB);fontColor=light-dark(#46495D,#46495D);rounded=1;" parent="d45avjFu-AIYiAAqqC4H-6" vertex="1" connectable="0">
          <mxGeometry x="0.7863" y="-1" relative="1" as="geometry">
            <mxPoint x="-115" y="64" as="offset" />
          </mxGeometry>
        </mxCell>
        <mxCell id="d45avjFu-AIYiAAqqC4H-8" value="Isobaric Heat addition" style="rounded=1;whiteSpace=wrap;html=1;labelBackgroundColor=none;fillColor=light-dark(#A9C4EB,#A9C4EB);strokeColor=#788AA3;fontColor=light-dark(#46495D,#333333);" parent="1" vertex="1">
          <mxGeometry x="390" y="295" width="90" height="140" as="geometry" />
        </mxCell>
        <mxCell id="d45avjFu-AIYiAAqqC4H-9" value="" style="endArrow=classic;html=1;rounded=1;fontSize=12;startSize=8;endSize=8;curved=1;exitX=1;exitY=0.25;exitDx=0;exitDy=0;entryX=0;entryY=0.25;entryDx=0;entryDy=0;labelBackgroundColor=none;strokeColor=#788AA3;fontColor=default;" parent="1" source="d45avjFu-AIYiAAqqC4H-3" target="d45avjFu-AIYiAAqqC4H-8" edge="1">
          <mxGeometry width="50" height="50" relative="1" as="geometry">
            <mxPoint x="290" y="525" as="sourcePoint" />
            <mxPoint x="340" y="475" as="targetPoint" />
          </mxGeometry>
        </mxCell>
        <mxCell id="d45avjFu-AIYiAAqqC4H-10" value="h_2_s" style="edgeLabel;html=1;align=center;verticalAlign=middle;resizable=0;points=[];fontSize=12;labelBackgroundColor=light-dark(#D9D9D9,#DBDBDB);fontColor=light-dark(#46495D,#46495D);rounded=1;" parent="d45avjFu-AIYiAAqqC4H-9" vertex="1" connectable="0">
          <mxGeometry x="0.364" y="-2" relative="1" as="geometry">
            <mxPoint x="-18" y="-7" as="offset" />
          </mxGeometry>
        </mxCell>
        <mxCell id="d45avjFu-AIYiAAqqC4H-20" value="" style="edgeStyle=elbowEdgeStyle;elbow=horizontal;endArrow=classic;html=1;curved=0;rounded=1;endSize=8;startSize=8;fontSize=12;entryDx=0;entryDy=0;entryPerimeter=0;labelBackgroundColor=none;strokeColor=#788AA3;fontColor=default;exitX=0.65;exitY=0.578;exitDx=0;exitDy=0;exitPerimeter=0;" parent="1" source="d45avjFu-AIYiAAqqC4H-21" target="d45avjFu-AIYiAAqqC4H-21" edge="1">
          <mxGeometry width="50" height="50" relative="1" as="geometry">
            <mxPoint x="90" y="525" as="sourcePoint" />
            <mxPoint x="390" y="345" as="targetPoint" />
            <Array as="points" />
          </mxGeometry>
        </mxCell>
        <mxCell id="d45avjFu-AIYiAAqqC4H-21" value="" style="shape=waypoint;fillStyle=solid;size=6;pointerEvents=1;points=[];fillColor=none;resizable=0;rotatable=0;perimeter=centerPerimeter;snapToPoint=1;labelBackgroundColor=none;strokeColor=#788AA3;fontColor=#46495D;rounded=1;" parent="1" vertex="1">
          <mxGeometry x="148" y="455" width="20" height="20" as="geometry" />
        </mxCell>
        <mxCell id="d45avjFu-AIYiAAqqC4H-22" value="" style="endArrow=classic;html=1;rounded=1;fontSize=12;startSize=8;endSize=8;curved=1;exitX=1.002;exitY=0.428;exitDx=0;exitDy=0;exitPerimeter=0;labelBackgroundColor=none;strokeColor=#788AA3;fontColor=default;verticalAlign=middle;entryX=0;entryY=0.5;entryDx=0;entryDy=0;" parent="1" source="d45avjFu-AIYiAAqqC4H-3" target="d45avjFu-AIYiAAqqC4H-23" edge="1">
          <mxGeometry width="50" height="50" relative="1" as="geometry">
            <mxPoint x="260" y="355" as="sourcePoint" />
            <mxPoint x="299" y="355" as="targetPoint" />
          </mxGeometry>
        </mxCell>
        <mxCell id="d45avjFu-AIYiAAqqC4H-23" value="Wc_s" style="rounded=1;whiteSpace=wrap;html=1;labelBackgroundColor=none;fillColor=light-dark(#D4E1F5,#9AC7BF);strokeColor=#788AA3;fontColor=light-dark(#46495D,#46495D);" parent="1" vertex="1">
          <mxGeometry x="320" y="345" width="50" height="20" as="geometry" />
        </mxCell>
        <mxCell id="d45avjFu-AIYiAAqqC4H-24" value="Isentropic Expansion" style="rounded=1;whiteSpace=wrap;html=1;labelBackgroundColor=none;fillColor=light-dark(#A9C4EB,#A9C4EB);strokeColor=#788AA3;fontColor=light-dark(#46495D,#333333);" parent="1" vertex="1">
          <mxGeometry x="640" y="295" width="90" height="140" as="geometry" />
        </mxCell>
        <mxCell id="d45avjFu-AIYiAAqqC4H-27" value="P3" style="rounded=1;whiteSpace=wrap;html=1;labelBackgroundColor=none;fillColor=light-dark(#B5739D,#F19C99);strokeColor=#788AA3;fontColor=light-dark(#46495D,#333333);" parent="1" vertex="1">
          <mxGeometry x="560" y="371" width="50" height="20" as="geometry" />
        </mxCell>
        <mxCell id="d45avjFu-AIYiAAqqC4H-28" value="" style="endArrow=classic;html=1;rounded=1;fontSize=12;startSize=8;endSize=8;curved=1;entryX=0.004;entryY=0.35;entryDx=0;entryDy=0;entryPerimeter=0;exitX=1;exitY=0.5;exitDx=0;exitDy=0;labelBackgroundColor=none;strokeColor=#788AA3;fontColor=default;" parent="1" source="d45avjFu-AIYiAAqqC4H-27" edge="1">
          <mxGeometry width="50" height="50" relative="1" as="geometry">
            <mxPoint x="371" y="491" as="sourcePoint" />
            <mxPoint x="640.3600000000001" y="380.5" as="targetPoint" />
          </mxGeometry>
        </mxCell>
        <mxCell id="d45avjFu-AIYiAAqqC4H-29" value="P4" style="rounded=1;whiteSpace=wrap;html=1;labelBackgroundColor=none;fillColor=light-dark(#B5739D,#F19C99);strokeColor=#788AA3;fontColor=light-dark(#46495D,#333333);" parent="1" vertex="1">
          <mxGeometry x="560" y="396" width="50" height="20" as="geometry" />
        </mxCell>
        <mxCell id="d45avjFu-AIYiAAqqC4H-30" value="" style="endArrow=classic;html=1;rounded=1;fontSize=12;startSize=8;endSize=8;curved=1;exitX=1;exitY=0.5;exitDx=0;exitDy=0;labelBackgroundColor=none;strokeColor=#788AA3;fontColor=default;entryX=-0.001;entryY=0.531;entryDx=0;entryDy=0;entryPerimeter=0;" parent="1" source="d45avjFu-AIYiAAqqC4H-29" edge="1">
          <mxGeometry width="50" height="50" relative="1" as="geometry">
            <mxPoint x="371" y="516" as="sourcePoint" />
            <mxPoint x="639.9100000000001" y="406.2700000000001" as="targetPoint" />
          </mxGeometry>
        </mxCell>
        <mxCell id="d45avjFu-AIYiAAqqC4H-35" value="" style="endArrow=classic;html=1;rounded=1;fontSize=12;startSize=8;endSize=8;curved=1;labelBackgroundColor=none;strokeColor=#788AA3;fontColor=default;verticalAlign=middle;entryX=0;entryY=0.5;entryDx=0;entryDy=0;exitX=0.989;exitY=0.433;exitDx=0;exitDy=0;exitPerimeter=0;" parent="1" source="d45avjFu-AIYiAAqqC4H-24" target="d45avjFu-AIYiAAqqC4H-36" edge="1">
          <mxGeometry width="50" height="50" relative="1" as="geometry">
            <mxPoint x="750" y="375" as="sourcePoint" />
            <mxPoint x="699" y="375" as="targetPoint" />
          </mxGeometry>
        </mxCell>
        <mxCell id="d45avjFu-AIYiAAqqC4H-36" value="Wt_s" style="rounded=1;whiteSpace=wrap;html=1;labelBackgroundColor=none;fillColor=light-dark(#D4E1F5,#9AC7BF);strokeColor=#788AA3;fontColor=light-dark(#46495D,#46495D);" parent="1" vertex="1">
          <mxGeometry x="760" y="345" width="50" height="20" as="geometry" />
        </mxCell>
        <mxCell id="d45avjFu-AIYiAAqqC4H-37" value="Isobaric Heat rejection" style="rounded=1;whiteSpace=wrap;html=1;labelBackgroundColor=none;fillColor=light-dark(#A9C4EB,#A9C4EB);strokeColor=#788AA3;fontColor=light-dark(#46495D,#333333);" parent="1" vertex="1">
          <mxGeometry x="830" y="295" width="90" height="140" as="geometry" />
        </mxCell>
        <mxCell id="d45avjFu-AIYiAAqqC4H-38" value="" style="endArrow=classic;html=1;rounded=1;fontSize=12;startSize=8;endSize=8;curved=1;labelBackgroundColor=none;strokeColor=#788AA3;fontColor=default;entryX=-0.013;entryY=0.209;entryDx=0;entryDy=0;entryPerimeter=0;exitX=0.989;exitY=0.207;exitDx=0;exitDy=0;exitPerimeter=0;" parent="1" source="d45avjFu-AIYiAAqqC4H-24" target="d45avjFu-AIYiAAqqC4H-37" edge="1">
          <mxGeometry width="50" height="50" relative="1" as="geometry">
            <mxPoint x="740" y="324" as="sourcePoint" />
            <mxPoint x="761" y="325" as="targetPoint" />
          </mxGeometry>
        </mxCell>
        <mxCell id="d45avjFu-AIYiAAqqC4H-39" value="h_4_s" style="edgeLabel;html=1;align=center;verticalAlign=middle;resizable=0;points=[];fontSize=12;labelBackgroundColor=light-dark(#D9D9D9,#DBDBDB);fontColor=light-dark(#46495D,#46495D);rounded=1;" parent="d45avjFu-AIYiAAqqC4H-38" vertex="1" connectable="0">
          <mxGeometry x="0.364" y="-2" relative="1" as="geometry">
            <mxPoint x="-18" y="-7" as="offset" />
          </mxGeometry>
        </mxCell>
        <mxCell id="d45avjFu-AIYiAAqqC4H-46" value="" style="edgeStyle=elbowEdgeStyle;elbow=horizontal;endArrow=classic;html=1;curved=0;rounded=1;endSize=8;startSize=8;fontSize=12;entryX=0;entryY=0.786;entryDx=0;entryDy=0;entryPerimeter=0;labelBackgroundColor=none;strokeColor=#788AA3;fontColor=default;" parent="1" target="d45avjFu-AIYiAAqqC4H-37" edge="1">
          <mxGeometry width="50" height="50" relative="1" as="geometry">
            <mxPoint x="90" y="465" as="sourcePoint" />
            <mxPoint x="822" y="449" as="targetPoint" />
            <Array as="points">
              <mxPoint x="790" y="495" />
            </Array>
          </mxGeometry>
        </mxCell>
        <mxCell id="d45avjFu-AIYiAAqqC4H-47" value="" style="endArrow=classic;html=1;rounded=1;fontSize=12;startSize=8;endSize=8;curved=1;exitX=1.002;exitY=0.428;exitDx=0;exitDy=0;exitPerimeter=0;labelBackgroundColor=none;strokeColor=#788AA3;fontColor=default;verticalAlign=middle;entryX=0;entryY=0.5;entryDx=0;entryDy=0;" parent="1" target="d45avjFu-AIYiAAqqC4H-48" edge="1">
          <mxGeometry width="50" height="50" relative="1" as="geometry">
            <mxPoint x="480" y="410" as="sourcePoint" />
            <mxPoint x="489" y="410" as="targetPoint" />
          </mxGeometry>
        </mxCell>
        <mxCell id="d45avjFu-AIYiAAqqC4H-48" value="Qin_s" style="rounded=1;whiteSpace=wrap;html=1;labelBackgroundColor=none;fillColor=light-dark(#D4E1F5,#9AC7BF);strokeColor=#788AA3;fontColor=light-dark(#46495D,#46495D);" parent="1" vertex="1">
          <mxGeometry x="500" y="400" width="50" height="20" as="geometry" />
        </mxCell>
        <mxCell id="d45avjFu-AIYiAAqqC4H-49" value="" style="endArrow=classic;html=1;rounded=1;fontSize=12;startSize=8;endSize=8;curved=1;labelBackgroundColor=none;strokeColor=#788AA3;fontColor=default;verticalAlign=middle;entryX=0;entryY=0.5;entryDx=0;entryDy=0;exitX=1;exitY=0.5;exitDx=0;exitDy=0;" parent="1" source="d45avjFu-AIYiAAqqC4H-37" target="d45avjFu-AIYiAAqqC4H-50" edge="1">
          <mxGeometry width="50" height="50" relative="1" as="geometry">
            <mxPoint x="930" y="365" as="sourcePoint" />
            <mxPoint x="929" y="365" as="targetPoint" />
          </mxGeometry>
        </mxCell>
        <mxCell id="d45avjFu-AIYiAAqqC4H-50" value="Qout_s" style="rounded=1;whiteSpace=wrap;html=1;labelBackgroundColor=none;fillColor=light-dark(#D4E1F5,#9AC7BF);strokeColor=#788AA3;fontColor=light-dark(#46495D,#46495D);" parent="1" vertex="1">
          <mxGeometry x="950" y="355" width="50" height="20" as="geometry" />
        </mxCell>
        <mxCell id="d45avjFu-AIYiAAqqC4H-60" value="" style="edgeStyle=elbowEdgeStyle;elbow=horizontal;endArrow=classic;html=1;curved=0;rounded=1;endSize=8;startSize=8;fontSize=12;entryX=-0.01;entryY=0.151;entryDx=0;entryDy=0;labelBackgroundColor=none;strokeColor=#788AA3;fontColor=default;entryPerimeter=0;" parent="1" target="d45avjFu-AIYiAAqqC4H-3" edge="1">
          <mxGeometry width="50" height="50" relative="1" as="geometry">
            <mxPoint x="30" y="316" as="sourcePoint" />
            <mxPoint x="347" y="411" as="targetPoint" />
            <Array as="points">
              <mxPoint x="120" y="285" />
            </Array>
          </mxGeometry>
        </mxCell>
        <mxCell id="d45avjFu-AIYiAAqqC4H-61" value="rc" style="edgeLabel;html=1;align=center;verticalAlign=middle;resizable=0;points=[];labelBackgroundColor=light-dark(#D9D9D9,#DBDBDB);fontColor=light-dark(#46495D,#46495D);" parent="d45avjFu-AIYiAAqqC4H-60" vertex="1" connectable="0">
          <mxGeometry x="-0.5576" relative="1" as="geometry">
            <mxPoint x="3" y="-1" as="offset" />
          </mxGeometry>
        </mxCell>
        <mxCell id="g4IbuXOnp4qawnmKlWSC-7" value="" style="group" parent="1" vertex="1" connectable="0">
          <mxGeometry x="298.02" y="170" width="195" height="90" as="geometry" />
        </mxCell>
        <mxCell id="g4IbuXOnp4qawnmKlWSC-8" value="" style="shape=datastore;whiteSpace=wrap;html=1;fillColor=#C3ABD0;strokeColor=#868686;" parent="g4IbuXOnp4qawnmKlWSC-7" vertex="1">
          <mxGeometry x="45" width="60" height="60" as="geometry" />
        </mxCell>
        <mxCell id="g4IbuXOnp4qawnmKlWSC-9" value="ideal_gas_properties.db /&amp;nbsp;get_fluid_properties_fromPr" style="rounded=0;whiteSpace=wrap;html=1;strokeColor=none;fillColor=none;fontColor=#868686;" parent="g4IbuXOnp4qawnmKlWSC-7" vertex="1">
          <mxGeometry x="22.5" y="70" width="150" height="20" as="geometry" />
        </mxCell>
        <mxCell id="g4IbuXOnp4qawnmKlWSC-11" value="" style="endArrow=none;dashed=1;html=1;rounded=0;strokeColor=#868686;" parent="1" edge="1">
          <mxGeometry width="50" height="50" relative="1" as="geometry">
            <mxPoint x="340" y="215" as="sourcePoint" />
            <mxPoint x="260" y="295" as="targetPoint" />
          </mxGeometry>
        </mxCell>
        <mxCell id="g4IbuXOnp4qawnmKlWSC-21" value="" style="endArrow=none;dashed=1;html=1;rounded=0;strokeColor=#868686;entryX=0.441;entryY=-0.018;entryDx=0;entryDy=0;entryPerimeter=0;exitX=1;exitY=0.7;exitDx=0;exitDy=0;" parent="1" source="g4IbuXOnp4qawnmKlWSC-8" target="d45avjFu-AIYiAAqqC4H-24" edge="1">
          <mxGeometry width="50" height="50" relative="1" as="geometry">
            <mxPoint x="410" y="215" as="sourcePoint" />
            <mxPoint x="580" y="285" as="targetPoint" />
          </mxGeometry>
        </mxCell>
        <mxCell id="tyS1mxwU9eiOsXaAAD5W-8" value="" style="rounded=0;whiteSpace=wrap;html=1;" parent="1" vertex="1">
          <mxGeometry x="20" y="295" width="10" height="265" as="geometry" />
        </mxCell>
        <mxCell id="tyS1mxwU9eiOsXaAAD5W-9" value="P3" style="rounded=1;whiteSpace=wrap;html=1;labelBackgroundColor=none;fillColor=light-dark(#B5739D,#F19C99);strokeColor=#788AA3;fontColor=light-dark(#46495D,#333333);" parent="1" vertex="1">
          <mxGeometry x="100" y="390" width="50" height="20" as="geometry" />
        </mxCell>
        <mxCell id="tyS1mxwU9eiOsXaAAD5W-10" value="P4" style="rounded=1;whiteSpace=wrap;html=1;labelBackgroundColor=none;fillColor=light-dark(#B5739D,#F19C99);strokeColor=#788AA3;fontColor=light-dark(#46495D,#333333);" parent="1" vertex="1">
          <mxGeometry x="100" y="415" width="50" height="20" as="geometry" />
        </mxCell>
        <mxCell id="tyS1mxwU9eiOsXaAAD5W-11" value="" style="edgeStyle=elbowEdgeStyle;elbow=horizontal;endArrow=classic;html=1;curved=0;rounded=1;endSize=8;startSize=8;fontSize=12;entryX=0;entryY=0.5;entryDx=0;entryDy=0;labelBackgroundColor=none;strokeColor=#788AA3;fontColor=default;" parent="1" edge="1">
          <mxGeometry width="50" height="50" relative="1" as="geometry">
            <mxPoint x="30" y="399" as="sourcePoint" />
            <mxPoint x="100" y="399.31" as="targetPoint" />
            <Array as="points" />
          </mxGeometry>
        </mxCell>
        <mxCell id="tyS1mxwU9eiOsXaAAD5W-13" value="" style="edgeStyle=elbowEdgeStyle;elbow=horizontal;endArrow=classic;html=1;curved=0;rounded=1;endSize=8;startSize=8;fontSize=12;entryX=0;entryY=0.5;entryDx=0;entryDy=0;labelBackgroundColor=none;strokeColor=#788AA3;fontColor=default;" parent="1" edge="1">
          <mxGeometry width="50" height="50" relative="1" as="geometry">
            <mxPoint x="30" y="425" as="sourcePoint" />
            <mxPoint x="100" y="425.31" as="targetPoint" />
            <Array as="points" />
          </mxGeometry>
        </mxCell>
        <mxCell id="R1af7d6Fm1YFTJbuGz0l-1" value="h_3" style="rounded=1;whiteSpace=wrap;html=1;labelBackgroundColor=none;fillColor=light-dark(#B5739D,#F19C99);strokeColor=#788AA3;fontColor=light-dark(#46495D,#333333);" parent="1" vertex="1">
          <mxGeometry x="100" y="500" width="50" height="20" as="geometry" />
        </mxCell>
        <mxCell id="R1af7d6Fm1YFTJbuGz0l-2" value="pr_3" style="rounded=1;whiteSpace=wrap;html=1;labelBackgroundColor=none;fillColor=light-dark(#B5739D,#F19C99);strokeColor=#788AA3;fontColor=light-dark(#46495D,#333333);" parent="1" vertex="1">
          <mxGeometry x="100" y="525" width="50" height="20" as="geometry" />
        </mxCell>
        <mxCell id="R1af7d6Fm1YFTJbuGz0l-3" value="" style="edgeStyle=elbowEdgeStyle;elbow=horizontal;endArrow=classic;html=1;curved=0;rounded=1;endSize=8;startSize=8;fontSize=12;entryX=0;entryY=0.5;entryDx=0;entryDy=0;labelBackgroundColor=none;strokeColor=#788AA3;fontColor=default;" parent="1" edge="1">
          <mxGeometry width="50" height="50" relative="1" as="geometry">
            <mxPoint x="30" y="509" as="sourcePoint" />
            <mxPoint x="100" y="509.30999999999995" as="targetPoint" />
            <Array as="points" />
          </mxGeometry>
        </mxCell>
        <mxCell id="R1af7d6Fm1YFTJbuGz0l-4" value="" style="edgeStyle=elbowEdgeStyle;elbow=horizontal;endArrow=classic;html=1;curved=0;rounded=1;endSize=8;startSize=8;fontSize=12;entryX=0;entryY=0.5;entryDx=0;entryDy=0;labelBackgroundColor=none;strokeColor=#788AA3;fontColor=default;" parent="1" edge="1">
          <mxGeometry width="50" height="50" relative="1" as="geometry">
            <mxPoint x="30" y="535" as="sourcePoint" />
            <mxPoint x="100" y="535.31" as="targetPoint" />
            <Array as="points" />
          </mxGeometry>
        </mxCell>
        <mxCell id="R1af7d6Fm1YFTJbuGz0l-5" value="h_3" style="rounded=1;whiteSpace=wrap;html=1;labelBackgroundColor=none;fillColor=light-dark(#B5739D,#F19C99);strokeColor=#788AA3;fontColor=light-dark(#46495D,#333333);" parent="1" vertex="1">
          <mxGeometry x="560" y="310" width="50" height="20" as="geometry" />
        </mxCell>
        <mxCell id="R1af7d6Fm1YFTJbuGz0l-6" value="" style="endArrow=classic;html=1;rounded=1;fontSize=12;startSize=8;endSize=8;curved=1;entryX=0.004;entryY=0.35;entryDx=0;entryDy=0;entryPerimeter=0;exitX=1;exitY=0.5;exitDx=0;exitDy=0;labelBackgroundColor=none;strokeColor=#788AA3;fontColor=default;" parent="1" source="R1af7d6Fm1YFTJbuGz0l-5" edge="1">
          <mxGeometry width="50" height="50" relative="1" as="geometry">
            <mxPoint x="371" y="430" as="sourcePoint" />
            <mxPoint x="640.3600000000001" y="319.5" as="targetPoint" />
          </mxGeometry>
        </mxCell>
        <mxCell id="R1af7d6Fm1YFTJbuGz0l-7" value="pr_3" style="rounded=1;whiteSpace=wrap;html=1;labelBackgroundColor=none;fillColor=light-dark(#B5739D,#F19C99);strokeColor=#788AA3;fontColor=light-dark(#46495D,#333333);" parent="1" vertex="1">
          <mxGeometry x="560" y="335" width="50" height="20" as="geometry" />
        </mxCell>
        <mxCell id="R1af7d6Fm1YFTJbuGz0l-8" value="" style="endArrow=classic;html=1;rounded=1;fontSize=12;startSize=8;endSize=8;curved=1;exitX=1;exitY=0.5;exitDx=0;exitDy=0;labelBackgroundColor=none;strokeColor=#788AA3;fontColor=default;entryX=-0.001;entryY=0.531;entryDx=0;entryDy=0;entryPerimeter=0;" parent="1" source="R1af7d6Fm1YFTJbuGz0l-7" edge="1">
          <mxGeometry width="50" height="50" relative="1" as="geometry">
            <mxPoint x="371" y="455" as="sourcePoint" />
            <mxPoint x="639.9100000000001" y="345.2700000000001" as="targetPoint" />
          </mxGeometry>
        </mxCell>
        <mxCell id="R1af7d6Fm1YFTJbuGz0l-10" value="" style="rounded=0;whiteSpace=wrap;html=1;" parent="1" vertex="1">
          <mxGeometry x="1120" y="295" width="10" height="265" as="geometry" />
        </mxCell>
        <mxCell id="R1af7d6Fm1YFTJbuGz0l-11" value="Wc_s" style="rounded=1;whiteSpace=wrap;html=1;labelBackgroundColor=none;fillColor=light-dark(#D4E1F5,#9AC7BF);strokeColor=#788AA3;fontColor=light-dark(#46495D,#46495D);" parent="1" vertex="1">
          <mxGeometry x="1020" y="400" width="50" height="20" as="geometry" />
        </mxCell>
        <mxCell id="R1af7d6Fm1YFTJbuGz0l-12" value="Wt_s" style="rounded=1;whiteSpace=wrap;html=1;labelBackgroundColor=none;fillColor=light-dark(#D4E1F5,#9AC7BF);strokeColor=#788AA3;fontColor=light-dark(#46495D,#46495D);" parent="1" vertex="1">
          <mxGeometry x="1020" y="460" width="50" height="20" as="geometry" />
        </mxCell>
        <mxCell id="R1af7d6Fm1YFTJbuGz0l-15" value="" style="endArrow=classic;html=1;rounded=1;fontSize=12;startSize=8;endSize=8;curved=1;labelBackgroundColor=none;strokeColor=#788AA3;fontColor=default;verticalAlign=middle;entryX=0.062;entryY=0.092;entryDx=0;entryDy=0;exitX=1;exitY=0.5;exitDx=0;exitDy=0;entryPerimeter=0;" parent="1" edge="1">
          <mxGeometry width="50" height="50" relative="1" as="geometry">
            <mxPoint x="1070" y="409.65999999999997" as="sourcePoint" />
            <mxPoint x="1120.62" y="409.38" as="targetPoint" />
          </mxGeometry>
        </mxCell>
        <mxCell id="R1af7d6Fm1YFTJbuGz0l-16" value="" style="endArrow=classic;html=1;rounded=1;fontSize=12;startSize=8;endSize=8;curved=1;labelBackgroundColor=none;strokeColor=#788AA3;fontColor=default;verticalAlign=middle;entryX=0.062;entryY=0.092;entryDx=0;entryDy=0;exitX=1;exitY=0.5;exitDx=0;exitDy=0;entryPerimeter=0;" parent="1" edge="1">
          <mxGeometry width="50" height="50" relative="1" as="geometry">
            <mxPoint x="1070" y="470.65999999999997" as="sourcePoint" />
            <mxPoint x="1121" y="470" as="targetPoint" />
          </mxGeometry>
        </mxCell>
      </root>
    </mxGraphModel>
  </diagram>
</mxfile>
